<svg width="16" height="16" viewBox="0 0 16 16" fill="none" xmlns="http://www.w3.org/2000/svg">
<path d="M6.71967 7.23967C6.75301 7.01967 6.82634 6.82634 6.91967 6.65967C7.01301 6.49301 7.14634 6.35301 7.31301 6.24634C7.47301 6.14634 7.67301 6.09967 7.91967 6.09301C8.07301 6.09967 8.21301 6.12634 8.33967 6.17967C8.47301 6.23967 8.59301 6.31967 8.68634 6.41967C8.77967 6.51967 8.85301 6.63967 8.91301 6.77301C8.97301 6.90634 8.99967 7.05301 9.00634 7.19967H10.1997C10.1863 6.88634 10.1263 6.59967 10.013 6.33967C9.89967 6.07967 9.74634 5.85301 9.54634 5.66634C9.34634 5.47967 9.10634 5.33301 8.82634 5.22634C8.54634 5.11967 8.23967 5.07301 7.89967 5.07301C7.46634 5.07301 7.08634 5.14634 6.76634 5.29967C6.44634 5.45301 6.17967 5.65301 5.96634 5.91301C5.75301 6.17301 5.59301 6.47301 5.49301 6.81967C5.39301 7.16634 5.33301 7.52634 5.33301 7.91301V8.09301C5.33301 8.47967 5.38634 8.83967 5.48634 9.18634C5.58634 9.53301 5.74634 9.83301 5.95967 10.0863C6.17301 10.3397 6.43967 10.5463 6.75967 10.693C7.07967 10.8397 7.45967 10.9197 7.89301 10.9197C8.20634 10.9197 8.49967 10.8663 8.77301 10.7663C9.04634 10.6663 9.28634 10.5263 9.49301 10.3463C9.69967 10.1663 9.86634 9.95967 9.98634 9.71967C10.1063 9.47967 10.1797 9.22634 10.1863 8.95301H8.99301C8.98634 9.09301 8.95301 9.21967 8.89301 9.33967C8.83301 9.45967 8.75301 9.55967 8.65301 9.64634C8.55301 9.73301 8.43967 9.79967 8.30634 9.84634C8.17967 9.89301 8.04634 9.90634 7.90634 9.91301C7.66634 9.90634 7.46634 9.85967 7.31301 9.75967C7.14634 9.65301 7.01301 9.51301 6.91967 9.34634C6.82634 9.17967 6.75301 8.97967 6.71967 8.75967C6.68634 8.53967 6.66634 8.31301 6.66634 8.09301V7.91301C6.66634 7.67967 6.68634 7.45967 6.71967 7.23967ZM7.99967 1.33301C4.31967 1.33301 1.33301 4.31967 1.33301 7.99967C1.33301 11.6797 4.31967 14.6663 7.99967 14.6663C11.6797 14.6663 14.6663 11.6797 14.6663 7.99967C14.6663 4.31967 11.6797 1.33301 7.99967 1.33301ZM7.99967 13.333C5.05967 13.333 2.66634 10.9397 2.66634 7.99967C2.66634 5.05967 5.05967 2.66634 7.99967 2.66634C10.9397 2.66634 13.333 5.05967 13.333 7.99967C13.333 10.9397 10.9397 13.333 7.99967 13.333Z" fill="#A7DC22"/>
</svg>
