<svg width="14" height="16" viewBox="0 0 14 16" fill="none" xmlns="http://www.w3.org/2000/svg">
<path d="M7.49995 13.0496C7.19995 13.2829 6.77495 13.2829 6.47495 13.0496L1.34995 9.06628C1.20476 8.95288 1.02583 8.89129 0.841614 8.89129C0.657395 8.89129 0.478465 8.95288 0.333281 9.06628C0.23402 9.14399 0.153747 9.24328 0.098542 9.35662C0.0433372 9.46996 0.0146484 9.59437 0.0146484 9.72044C0.0146484 9.84651 0.0433372 9.97092 0.098542 10.0843C0.153747 10.1976 0.23402 10.2969 0.333281 10.3746L5.96661 14.7579C6.56661 15.2246 7.40828 15.2246 8.01661 14.7579L13.6499 10.3746C14.0749 10.0413 14.0749 9.39961 13.6499 9.06628L13.6416 9.05794C13.4964 8.94455 13.3175 8.88295 13.1333 8.88295C12.9491 8.88295 12.7701 8.94455 12.6249 9.05794L7.49995 13.0496ZM8.02495 10.5329L13.6583 6.14961C14.0833 5.81628 14.0833 5.16628 13.6583 4.83294L8.02495 0.449609C7.42495 -0.0170573 6.58328 -0.0170573 5.97495 0.449609L0.341614 4.84128C-0.0833859 5.17461 -0.0833859 5.82461 0.341614 6.15794L5.97495 10.5413C6.57495 11.0079 7.42495 11.0079 8.02495 10.5329Z" fill="#0A2456"/>
</svg>
