<svg xmlns="http://www.w3.org/2000/svg" width="20" height="20" viewBox="0 0 20 20" fill="none">
    <path d="M10.4999 15.05C10.1999 15.2833 9.77495 15.2833 9.47495 15.05L4.34995 11.0666C4.20476 10.9532 4.02583 10.8917 3.84161 10.8917C3.65739 10.8917 3.47846 10.9532 3.33328 11.0666C3.23402 11.1444 3.15375 11.2437 3.09854 11.357C3.04334 11.4703 3.01465 11.5947 3.01465 11.7208C3.01465 11.8469 3.04334 11.9713 3.09854 12.0846C3.15375 12.198 3.23402 12.2973 3.33328 12.375L8.96661 16.7583C9.56661 17.225 10.4083 17.225 11.0166 16.7583L16.6499 12.375C17.0749 12.0416 17.0749 11.4 16.6499 11.0666L16.6416 11.0583C16.4964 10.9449 16.3175 10.8833 16.1333 10.8833C15.9491 10.8833 15.7701 10.9449 15.6249 11.0583L10.4999 15.05ZM11.0249 12.5333L16.6583 8.14998C17.0833 7.81664 17.0833 7.16664 16.6583 6.83331L11.0249 2.44998C10.4249 1.98331 9.58328 1.98331 8.97495 2.44998L3.34161 6.84164C2.91661 7.17498 2.91661 7.82498 3.34161 8.15831L8.97495 12.5416C9.57495 13.0083 10.4249 13.0083 11.0249 12.5333Z" fill="#A7DC22"/>
</svg>