<svg xmlns="http://www.w3.org/2000/svg" width="20" height="20" viewBox="0 0 20 20" fill="none">
    <path d="M5.00033 16.6666H15.0003C15.4587 16.6666 15.8337 17.0416 15.8337 17.5C15.8337 17.9583 15.4587 18.3333 15.0003 18.3333H5.00033C4.54199 18.3333 4.16699 17.9583 4.16699 17.5C4.16699 17.0416 4.54199 16.6666 5.00033 16.6666ZM10.0003 5.83329C9.08366 5.83329 8.33366 6.58329 8.33366 7.49996C8.33366 8.41663 9.08366 9.16663 10.0003 9.16663C10.917 9.16663 11.667 8.41663 11.667 7.49996C11.667 6.58329 10.917 5.83329 10.0003 5.83329ZM10.0003 1.66663C12.7253 1.66663 15.8337 3.71663 15.8337 7.62496C15.8337 10.1083 14.0587 12.725 10.5087 15.45C10.2087 15.6833 9.79199 15.6833 9.49199 15.45C5.94199 12.7166 4.16699 10.1083 4.16699 7.62496C4.16699 3.71663 7.27533 1.66663 10.0003 1.66663Z" fill="#A7DC22"/>
</svg>