<svg width="20" height="20" viewBox="0 0 20 20" fill="none" xmlns="http://www.w3.org/2000/svg">
<path d="M5.00033 16.667H15.0003C15.4587 16.667 15.8337 17.042 15.8337 17.5003C15.8337 17.9587 15.4587 18.3337 15.0003 18.3337H5.00033C4.54199 18.3337 4.16699 17.9587 4.16699 17.5003C4.16699 17.042 4.54199 16.667 5.00033 16.667ZM10.0003 5.83366C9.08366 5.83366 8.33366 6.58366 8.33366 7.50033C8.33366 8.41699 9.08366 9.16699 10.0003 9.16699C10.917 9.16699 11.667 8.41699 11.667 7.50033C11.667 6.58366 10.917 5.83366 10.0003 5.83366ZM10.0003 1.66699C12.7253 1.66699 15.8337 3.71699 15.8337 7.62533C15.8337 10.1087 14.0587 12.7253 10.5087 15.4503C10.2087 15.6837 9.79199 15.6837 9.49199 15.4503C5.94199 12.717 4.16699 10.1087 4.16699 7.62533C4.16699 3.71699 7.27533 1.66699 10.0003 1.66699Z" fill="#0A2456"/>
</svg>
