<svg xmlns="http://www.w3.org/2000/svg" width="20" height="20" viewBox="0 0 20 20" fill="none">
    <path d="M15.0003 10.8334H10.8337V15.0001C10.8337 15.4584 10.4587 15.8334 10.0003 15.8334C9.54199 15.8334 9.16699 15.4584 9.16699 15.0001V10.8334H5.00033C4.54199 10.8334 4.16699 10.4584 4.16699 10.0001C4.16699 9.54175 4.54199 9.16675 5.00033 9.16675H9.16699V5.00008C9.16699 4.54175 9.54199 4.16675 10.0003 4.16675C10.4587 4.16675 10.8337 4.54175 10.8337 5.00008V9.16675H15.0003C15.4587 9.16675 15.8337 9.54175 15.8337 10.0001C15.8337 10.4584 15.4587 10.8334 15.0003 10.8334Z" fill="#A7DC22"/>
</svg>