<svg width="20" height="20" viewBox="0 0 20 20" fill="none" xmlns="http://www.w3.org/2000/svg">
<path d="M6.59993 6.28333C5.93327 6 5.64993 5.175 6.04993 4.575C6.85827 3.375 8.20827 2.5 9.9916 2.5C11.9499 2.5 13.2916 3.39167 13.9749 4.50833C14.5583 5.46667 14.8999 7.25833 13.9999 8.59167C12.9999 10.0667 12.0416 10.5167 11.5249 11.4667C11.3999 11.6917 11.3249 11.875 11.2749 12.25C11.1999 12.8583 10.6999 13.3333 10.0833 13.3333C9.35827 13.3333 8.7666 12.7083 8.84993 11.9833C8.89993 11.5583 8.99993 11.1167 9.23327 10.7C9.87493 9.54167 11.1083 8.85833 11.8249 7.83333C12.5833 6.75833 12.1583 4.75 10.0083 4.75C9.03327 4.75 8.39993 5.25833 8.00827 5.86667C7.7166 6.34167 7.10827 6.49167 6.59993 6.28333ZM11.6666 16.6667C11.6666 17.5833 10.9166 18.3333 9.99993 18.3333C9.08327 18.3333 8.33327 17.5833 8.33327 16.6667C8.33327 15.75 9.08327 15 9.99993 15C10.9166 15 11.6666 15.75 11.6666 16.6667Z" fill="#3F444F"/>
</svg>
