<svg width="40" height="40" viewBox="0 0 40 40" fill="none" xmlns="http://www.w3.org/2000/svg">
<g clip-path="url(#clip0_1163_6856)">
<g filter="url(#filter0_dd_1163_6856)">
<path d="M19.9998 3.33301C12.9998 3.33301 6.6665 8.69967 6.6665 16.9997C6.6665 22.2997 10.7498 28.533 18.8998 35.6997C19.4998 36.233 20.5165 36.233 21.1165 35.6997C29.2498 28.533 33.3332 22.2997 33.3332 16.9997C33.3332 8.69967 26.9998 3.33301 19.9998 3.33301Z" fill="#EDF3FF"/>
</g>
<g filter="url(#filter1_dd_1163_6856)">
<path d="M27.5762 14.4238L17.4238 24.5762C17.4273 24.5773 17.4307 24.5785 17.4342 24.5797C14.2744 23.5104 12 20.5208 12 17C12 12.5817 15.5817 9 20 9C23.517 9 26.5039 11.2695 27.5762 14.4238Z" fill="url(#paint0_linear_1163_6856)"/>
<path d="M17.2953 23.9976C14.4892 22.9123 12.5 20.1878 12.5 17C12.5 12.8579 15.8579 9.5 20 9.5C23.1878 9.5 25.9123 11.4892 26.9976 14.2953L17.2953 23.9976Z" stroke="white"/>
</g>
<path d="M25 14C20.5817 14 17 17.5817 17 22C17 22.9013 17.149 23.7678 17.4238 24.5762L27.5762 14.4238C26.7678 14.149 25.9013 14 25 14Z" fill="url(#paint1_linear_1163_6856)"/>
</g>
<defs>
<filter id="filter0_dd_1163_6856" x="1.7665" y="1.43301" width="36.4665" height="42.5666" filterUnits="userSpaceOnUse" color-interpolation-filters="sRGB">
<feFlood flood-opacity="0" result="BackgroundImageFix"/>
<feColorMatrix in="SourceAlpha" type="matrix" values="0 0 0 0 0 0 0 0 0 0 0 0 0 0 0 0 0 0 127 0" result="hardAlpha"/>
<feOffset dy="1"/>
<feGaussianBlur stdDeviation="1.05"/>
<feComposite in2="hardAlpha" operator="out"/>
<feColorMatrix type="matrix" values="0 0 0 0 0 0 0 0 0 0 0 0 0 0 0 0 0 0 0.25 0"/>
<feBlend mode="normal" in2="BackgroundImageFix" result="effect1_dropShadow_1163_6856"/>
<feColorMatrix in="SourceAlpha" type="matrix" values="0 0 0 0 0 0 0 0 0 0 0 0 0 0 0 0 0 0 127 0" result="hardAlpha"/>
<feOffset dy="3"/>
<feGaussianBlur stdDeviation="2.45"/>
<feComposite in2="hardAlpha" operator="out"/>
<feColorMatrix type="matrix" values="0 0 0 0 0 0 0 0 0 0 0 0 0 0 0 0 0 0 0.1 0"/>
<feBlend mode="normal" in2="effect1_dropShadow_1163_6856" result="effect2_dropShadow_1163_6856"/>
<feBlend mode="normal" in="SourceGraphic" in2="effect2_dropShadow_1163_6856" result="shape"/>
</filter>
<filter id="filter1_dd_1163_6856" x="7.5" y="5.5" width="24.5762" height="24.5801" filterUnits="userSpaceOnUse" color-interpolation-filters="sRGB">
<feFlood flood-opacity="0" result="BackgroundImageFix"/>
<feColorMatrix in="SourceAlpha" type="matrix" values="0 0 0 0 0 0 0 0 0 0 0 0 0 0 0 0 0 0 127 0" result="hardAlpha"/>
<feOffset dy="1"/>
<feGaussianBlur stdDeviation="0.85"/>
<feComposite in2="hardAlpha" operator="out"/>
<feColorMatrix type="matrix" values="0 0 0 0 0 0 0 0 0 0 0 0 0 0 0 0 0 0 0.1 0"/>
<feBlend mode="normal" in2="BackgroundImageFix" result="effect1_dropShadow_1163_6856"/>
<feColorMatrix in="SourceAlpha" type="matrix" values="0 0 0 0 0 0 0 0 0 0 0 0 0 0 0 0 0 0 127 0" result="hardAlpha"/>
<feOffset dy="1"/>
<feGaussianBlur stdDeviation="2.25"/>
<feComposite in2="hardAlpha" operator="out"/>
<feColorMatrix type="matrix" values="0 0 0 0 0 0 0 0 0 0 0 0 0 0 0 0 0 0 0.15 0"/>
<feBlend mode="normal" in2="effect1_dropShadow_1163_6856" result="effect2_dropShadow_1163_6856"/>
<feBlend mode="normal" in="SourceGraphic" in2="effect2_dropShadow_1163_6856" result="shape"/>
</filter>
<linearGradient id="paint0_linear_1163_6856" x1="19.7881" y1="24.5797" x2="19.7881" y2="9" gradientUnits="userSpaceOnUse">
<stop stop-color="#305DB6"/>
<stop offset="1" stop-color="#3972E2"/>
</linearGradient>
<linearGradient id="paint1_linear_1163_6856" x1="22" y1="12.5" x2="17.5" y2="24.5" gradientUnits="userSpaceOnUse">
<stop stop-color="#DADADA"/>
<stop offset="0.094639" stop-color="#DCDCDC"/>
<stop offset="0.19477" stop-color="#F9F9F9"/>
<stop offset="0.452282" stop-color="#D8D8D8"/>
<stop offset="0.534564" stop-color="#EFEEEE"/>
<stop offset="0.642104" stop-color="#CCCCCC"/>
<stop offset="0.766595" stop-color="#C2C2C2"/>
<stop offset="1" stop-color="#737373"/>
</linearGradient>
<clipPath id="clip0_1163_6856">
<rect width="40" height="40" fill="white"/>
</clipPath>
</defs>
</svg>
