<svg xmlns="http://www.w3.org/2000/svg" width="40" height="40" viewBox="0 0 40 40" fill="none">
    <g clip-path="url(#clip0_2841_6632)">
        <g filter="url(#filter0_dd_2841_6632)">
            <path d="M20 3.33331C13 3.33331 6.66663 8.69998 6.66663 17C6.66663 22.3 10.75 28.5333 18.9 35.7C19.5 36.2333 20.5166 36.2333 21.1166 35.7C29.25 28.5333 33.3333 22.3 33.3333 17C33.3333 8.69998 27 3.33331 20 3.33331Z" fill="#F3FBDE"/>
        </g>
        <g filter="url(#filter1_dd_2841_6632)">
            <path d="M27.5762 14.4238L17.4238 24.5762C17.4273 24.5773 17.4307 24.5785 17.4342 24.5797C14.2744 23.5104 12 20.5208 12 17C12 12.5817 15.5817 9 20 9C23.517 9 26.5039 11.2695 27.5762 14.4238Z" fill="url(#paint0_linear_2841_6632)"/>
            <path d="M17.2953 23.9976C14.4892 22.9123 12.5 20.1878 12.5 17C12.5 12.8579 15.8579 9.5 20 9.5C23.1878 9.5 25.9123 11.4892 26.9976 14.2953L17.2953 23.9976Z" stroke="white"/>
        </g>
        <path d="M25 14C20.5817 14 17 17.5817 17 22C17 22.9013 17.149 23.7678 17.4238 24.5762L27.5762 14.4238C26.7678 14.149 25.9013 14 25 14Z" fill="url(#paint1_linear_2841_6632)"/>
    </g>
    <defs>
        <filter id="filter0_dd_2841_6632" x="1.76663" y="1.43331" width="36.4666" height="42.5667" filterUnits="userSpaceOnUse" color-interpolation-filters="sRGB">
            <feFlood flood-opacity="0" result="BackgroundImageFix"/>
            <feColorMatrix in="SourceAlpha" type="matrix" values="0 0 0 0 0 0 0 0 0 0 0 0 0 0 0 0 0 0 127 0" result="hardAlpha"/>
            <feOffset dy="1"/>
            <feGaussianBlur stdDeviation="1.05"/>
            <feComposite in2="hardAlpha" operator="out"/>
            <feColorMatrix type="matrix" values="0 0 0 0 0 0 0 0 0 0 0 0 0 0 0 0 0 0 0.25 0"/>
            <feBlend mode="normal" in2="BackgroundImageFix" result="effect1_dropShadow_2841_6632"/>
            <feColorMatrix in="SourceAlpha" type="matrix" values="0 0 0 0 0 0 0 0 0 0 0 0 0 0 0 0 0 0 127 0" result="hardAlpha"/>
            <feOffset dy="3"/>
            <feGaussianBlur stdDeviation="2.45"/>
            <feComposite in2="hardAlpha" operator="out"/>
            <feColorMatrix type="matrix" values="0 0 0 0 0 0 0 0 0 0 0 0 0 0 0 0 0 0 0.1 0"/>
            <feBlend mode="normal" in2="effect1_dropShadow_2841_6632" result="effect2_dropShadow_2841_6632"/>
            <feBlend mode="normal" in="SourceGraphic" in2="effect2_dropShadow_2841_6632" result="shape"/>
        </filter>
        <filter id="filter1_dd_2841_6632" x="7.5" y="5.5" width="24.5762" height="24.5797" filterUnits="userSpaceOnUse" color-interpolation-filters="sRGB">
            <feFlood flood-opacity="0" result="BackgroundImageFix"/>
            <feColorMatrix in="SourceAlpha" type="matrix" values="0 0 0 0 0 0 0 0 0 0 0 0 0 0 0 0 0 0 127 0" result="hardAlpha"/>
            <feOffset dy="1"/>
            <feGaussianBlur stdDeviation="0.85"/>
            <feComposite in2="hardAlpha" operator="out"/>
            <feColorMatrix type="matrix" values="0 0 0 0 0 0 0 0 0 0 0 0 0 0 0 0 0 0 0.1 0"/>
            <feBlend mode="normal" in2="BackgroundImageFix" result="effect1_dropShadow_2841_6632"/>
            <feColorMatrix in="SourceAlpha" type="matrix" values="0 0 0 0 0 0 0 0 0 0 0 0 0 0 0 0 0 0 127 0" result="hardAlpha"/>
            <feOffset dy="1"/>
            <feGaussianBlur stdDeviation="2.25"/>
            <feComposite in2="hardAlpha" operator="out"/>
            <feColorMatrix type="matrix" values="0 0 0 0 0 0 0 0 0 0 0 0 0 0 0 0 0 0 0.15 0"/>
            <feBlend mode="normal" in2="effect1_dropShadow_2841_6632" result="effect2_dropShadow_2841_6632"/>
            <feBlend mode="normal" in="SourceGraphic" in2="effect2_dropShadow_2841_6632" result="shape"/>
        </filter>
        <linearGradient id="paint0_linear_2841_6632" x1="19.7881" y1="24.5797" x2="19.7881" y2="9" gradientUnits="userSpaceOnUse">
            <stop stop-color="#305DB6"/>
            <stop offset="1" stop-color="#3972E2"/>
        </linearGradient>
        <linearGradient id="paint1_linear_2841_6632" x1="22" y1="12.5" x2="17.5" y2="24.5" gradientUnits="userSpaceOnUse">
            <stop stop-color="#DADADA"/>
            <stop offset="0.094639" stop-color="#DCDCDC"/>
            <stop offset="0.19477" stop-color="#F9F9F9"/>
            <stop offset="0.452282" stop-color="#D8D8D8"/>
            <stop offset="0.534564" stop-color="#EFEEEE"/>
            <stop offset="0.642104" stop-color="#CCCCCC"/>
            <stop offset="0.766595" stop-color="#C2C2C2"/>
            <stop offset="1" stop-color="#737373"/>
        </linearGradient>
        <clipPath id="clip0_2841_6632">
            <rect width="40" height="40" fill="white"/>
        </clipPath>
    </defs>
</svg>