<svg xmlns="http://www.w3.org/2000/svg" width="20" height="20" viewBox="0 0 20 20" fill="none">
    <mask id="mask0_2841_6653" style="mask-type:alpha" maskUnits="userSpaceOnUse" x="0" y="0" width="20" height="20">
        <rect width="20" height="20" fill="#D9D9D9"/>
    </mask>
    <g mask="url(#mask0_2841_6653)">
        <path d="M3.50009 17.4795C3.20842 17.5489 2.95495 17.476 2.73967 17.2607C2.52439 17.0455 2.45148 16.792 2.52092 16.5003L3.25009 12.9586L7.04175 16.7503L3.50009 17.4795ZM8.39592 15.7295L4.27092 11.6045L12.8751 3.00032C13.1945 2.68087 13.5904 2.52115 14.0626 2.52115C14.5348 2.52115 14.9306 2.68087 15.2501 3.00032L17.0001 4.75032C17.3195 5.06976 17.4793 5.46559 17.4793 5.93782C17.4793 6.41004 17.3195 6.80587 17.0001 7.12532L8.39592 15.7295Z" fill="#A7DC22"/>
    </g>
</svg>