<svg width="20" height="20" viewBox="0 0 20 20" fill="none" xmlns="http://www.w3.org/2000/svg">
<mask id="mask0_1457_4935" style="mask-type:alpha" maskUnits="userSpaceOnUse" x="0" y="0" width="20" height="20">
<rect width="20" height="20" fill="#D9D9D9"/>
</mask>
<g mask="url(#mask0_1457_4935)">
<path d="M3.50018 17.4798C3.20851 17.5493 2.95504 17.4763 2.73976 17.2611C2.52448 17.0458 2.45157 16.7923 2.52101 16.5007L3.25018 12.959L7.04185 16.7507L3.50018 17.4798ZM8.39601 15.7298L4.27101 11.6048L12.8752 3.00065C13.1946 2.68121 13.5905 2.52148 14.0627 2.52148C14.5349 2.52148 14.9307 2.68121 15.2502 3.00065L17.0002 4.75065C17.3196 5.0701 17.4793 5.46593 17.4793 5.93815C17.4793 6.41037 17.3196 6.80621 17.0002 7.12565L8.39601 15.7298Z" fill="#0A2456"/>
</g>
</svg>
